<svg width="128" height="128" viewBox="0 0 128 128" fill="none" xmlns="http://www.w3.org/2000/svg">
  <rect width="128" height="128" rx="16" fill="#0a0e17"/>
  <g transform="translate(12, 30) scale(0.076)">
    <path d="M1085.6 254L1137 0H998.404L919.004 392.4H1345.8L1369.2 276.8H1104.2C1092.2 276.8 1083.2 265.8 1085.6 254Z" fill="#0BAEEA"/>
    <path d="M56 115.6L66.8 62.4C74.2001 26 106 0 143.2 0H965.8L942.4 115.6H56Z" fill="#0BAEEA"/>
    <path d="M649.402 138.398H510.802L459.402 392.398H886.202L909.602 276.798H644.602C632.602 276.798 623.602 265.798 626.002 254.198L649.402 138.398Z" fill="#0BAEEA"/>
    <path d="M426.8 392.398H0L23.4 276.798H288.4C301.8 276.798 313.4 267.198 316.2 254.198H123.2C74.0001 254.198 37.2001 209.198 46.8 160.798L51.4 138.398H383C432.2 138.398 469 183.398 459.4 231.798L426.8 392.398Z" fill="#0BAEEA"/>
  </g>
</svg>
